<svg width="78" height="78" viewBox="0 0 78 78" fill="none" xmlns="http://www.w3.org/2000/svg">
<path d="M39 73.125C29.9495 73.125 21.2697 69.5297 14.87 63.13C8.4703 56.7303 4.875 48.0505 4.875 39C4.875 29.9495 8.4703 21.2697 14.87 14.87C21.2697 8.4703 29.9495 4.875 39 4.875C48.0505 4.875 56.7303 8.4703 63.13 14.87C69.5297 21.2697 73.125 29.9495 73.125 39C73.125 48.0505 69.5297 56.7303 63.13 63.13C56.7303 69.5297 48.0505 73.125 39 73.125ZM39 78C49.3434 78 59.2632 73.8911 66.5772 66.5772C73.8911 59.2632 78 49.3434 78 39C78 28.6566 73.8911 18.7368 66.5772 11.4228C59.2632 4.10892 49.3434 0 39 0C28.6566 0 18.7368 4.10892 11.4228 11.4228C4.10892 18.7368 0 28.6566 0 39C0 49.3434 4.10892 59.2632 11.4228 66.5772C18.7368 73.8911 28.6566 78 39 78Z" fill="url(#paint0_linear_3_3)"/>
<path d="M39 73.125C29.9495 73.125 21.2697 69.5297 14.87 63.13C8.4703 56.7303 4.875 48.0505 4.875 39C4.875 29.9495 8.4703 21.2697 14.87 14.87C21.2697 8.4703 29.9495 4.875 39 4.875C48.0505 4.875 56.7303 8.4703 63.13 14.87C69.5297 21.2697 73.125 29.9495 73.125 39C73.125 48.0505 69.5297 56.7303 63.13 63.13C56.7303 69.5297 48.0505 73.125 39 73.125Z" fill="url(#paint1_linear_3_3)"/>
<path d="M53.4788 24.2287C53.444 24.2624 53.4115 24.2982 53.3812 24.336L36.4504 45.9079L26.247 35.6996C25.5539 35.0538 24.6372 34.7022 23.69 34.7189C22.7427 34.7356 21.839 35.1193 21.1691 35.7892C20.4992 36.4591 20.1155 37.3629 20.0988 38.3101C20.0821 39.2573 20.4337 40.174 21.0795 40.8671L33.9787 53.7712C34.3262 54.1181 34.7401 54.3914 35.1955 54.5749C35.6509 54.7584 36.1386 54.8483 36.6295 54.8392C37.1204 54.8301 37.6045 54.7222 38.0528 54.522C38.5011 54.3217 38.9045 54.0333 39.2389 53.6738L58.6999 29.3475C59.3625 28.652 59.7248 27.7236 59.7085 26.7631C59.6921 25.8026 59.2984 24.8871 58.6124 24.2146C57.9264 23.5421 57.0033 23.1665 56.0427 23.1692C55.082 23.1718 54.161 23.5524 53.4788 24.2287Z" fill="white"/>
<defs>
<linearGradient id="paint0_linear_3_3" x1="39" y1="0" x2="39" y2="78" gradientUnits="userSpaceOnUse">
<stop stop-color="#57DDFF"/>
<stop offset="1" stop-color="#C058F3"/>
</linearGradient>
<linearGradient id="paint1_linear_3_3" x1="39" y1="0" x2="39" y2="78" gradientUnits="userSpaceOnUse">
<stop stop-color="#57DDFF"/>
<stop offset="1" stop-color="#C058F3"/>
</linearGradient>
</defs>
</svg>
