<svg width="78" height="78" viewBox="0 0 78 78" fill="none" xmlns="http://www.w3.org/2000/svg">
<path d="M39 73.125C29.9495 73.125 21.2697 69.5297 14.87 63.13C8.4703 56.7303 4.875 48.0505 4.875 39C4.875 29.9495 8.4703 21.2697 14.87 14.87C21.2697 8.4703 29.9495 4.875 39 4.875C48.0505 4.875 56.7303 8.4703 63.13 14.87C69.5297 21.2697 73.125 29.9495 73.125 39C73.125 48.0505 69.5297 56.7303 63.13 63.13C56.7303 69.5297 48.0505 73.125 39 73.125ZM39 78C49.3434 78 59.2632 73.8911 66.5772 66.5772C73.8911 59.2632 78 49.3434 78 39C78 28.6566 73.8911 18.7368 66.5772 11.4228C59.2632 4.10892 49.3434 0 39 0C28.6566 0 18.7368 4.10892 11.4228 11.4228C4.10892 18.7368 0 28.6566 0 39C0 49.3434 4.10892 59.2632 11.4228 66.5772C18.7368 73.8911 28.6566 78 39 78Z" fill="#4D5066"/>
</svg>
